<svg width="512" height="512" viewBox="0 0 512 512" fill="none" xmlns="http://www.w3.org/2000/svg">
<g clip-path="url(#clip0_2_2)">
<mask id="path-1-outside-1_2_2" maskUnits="userSpaceOnUse" x="5" y="66" width="490" height="410" fill="black">
<rect fill="white" x="5" y="66" width="490" height="410"/>
<path d="M209.518 446L199.018 390.5H120.018L109.518 446H41.5176L109.018 96H212.518L276.518 446H209.518ZM158.518 161L139.018 277.5L128.018 337H190.518L179.018 277.5L159.518 161H158.518ZM337.635 96H457.635V156H361.635L360.135 159L440.135 305C456.468 334.333 464.635 356.667 464.635 372C464.635 405.667 453.468 430.333 431.135 446H298.635V388H402.135L403.635 385L313.635 223.5C300.635 200.167 294.135 181.167 294.135 166.5C294.135 131.833 308.635 108.333 337.635 96Z"/>
</mask>
<path d="M209.518 446L199.018 390.5H120.018L109.518 446H41.5176L109.018 96H212.518L276.518 446H209.518ZM158.518 161L139.018 277.5L128.018 337H190.518L179.018 277.5L159.518 161H158.518ZM337.635 96H457.635V156H361.635L360.135 159L440.135 305C456.468 334.333 464.635 356.667 464.635 372C464.635 405.667 453.468 430.333 431.135 446H298.635V388H402.135L403.635 385L313.635 223.5C300.635 200.167 294.135 181.167 294.135 166.5C294.135 131.833 308.635 108.333 337.635 96Z" fill="#CECECE"/>
<path d="M209.518 446L180.04 451.577L184.661 476H209.518V446ZM199.018 390.5L228.495 384.923L223.874 360.5H199.018V390.5ZM120.018 390.5V360.5H95.1611L90.5405 384.923L120.018 390.5ZM109.518 446V476H134.374L138.995 451.577L109.518 446ZM41.5176 446L12.0604 440.319L5.17905 476H41.5176V446ZM109.018 96V66H84.2505L79.5604 90.3189L109.018 96ZM212.518 96L242.028 90.6037L237.529 66H212.518V96ZM276.518 446V476H312.501L306.028 440.604L276.518 446ZM158.518 161V131H133.122L128.929 156.047L158.518 161ZM139.018 277.5L168.518 282.954L168.564 282.704L168.606 282.453L139.018 277.5ZM128.018 337L98.5175 331.546L91.963 367H128.018V337ZM190.518 337V367H226.871L219.972 331.307L190.518 337ZM179.018 277.5L149.429 282.453L149.491 282.824L149.563 283.193L179.018 277.5ZM159.518 161L189.106 156.047L184.913 131H159.518V161ZM238.995 440.423L228.495 384.923L169.54 396.077L180.04 451.577L238.995 440.423ZM199.018 360.5H120.018V420.5H199.018V360.5ZM90.5405 384.923L80.0405 440.423L138.995 451.577L149.495 396.077L90.5405 384.923ZM109.518 416H41.5176V476H109.518V416ZM70.9748 451.681L138.475 101.681L79.5604 90.3189L12.0604 440.319L70.9748 451.681ZM109.018 126H212.518V66H109.018V126ZM183.007 101.396L247.007 451.396L306.028 440.604L242.028 90.6037L183.007 101.396ZM276.518 416H209.518V476H276.518V416ZM128.929 156.047L109.429 272.547L168.606 282.453L188.106 165.953L128.929 156.047ZM109.517 272.046L98.5175 331.546L157.518 342.454L168.518 282.954L109.517 272.046ZM128.018 367H190.518V307H128.018V367ZM219.972 331.307L208.472 271.807L149.563 283.193L161.063 342.693L219.972 331.307ZM208.606 272.547L189.106 156.047L129.929 165.953L149.429 282.453L208.606 272.547ZM159.518 131H158.518V191H159.518V131ZM337.635 96V66H331.52L325.894 68.3929L337.635 96ZM457.635 96H487.635V66H457.635V96ZM457.635 156V186H487.635V156H457.635ZM361.635 156V126H343.094L334.802 142.584L361.635 156ZM360.135 159L333.302 145.584L326.275 159.637L333.825 173.416L360.135 159ZM440.135 305L413.825 319.416L413.875 319.505L413.924 319.595L440.135 305ZM431.135 446V476H440.608L448.363 470.56L431.135 446ZM298.635 446H268.635V476H298.635V446ZM298.635 388V358H268.635V388H298.635ZM402.135 388V418H420.676L428.968 401.416L402.135 388ZM403.635 385L430.468 398.416L437.555 384.241L429.84 370.396L403.635 385ZM313.635 223.5L287.428 238.101L287.429 238.104L313.635 223.5ZM337.635 126H457.635V66H337.635V126ZM427.635 96V156H487.635V96H427.635ZM457.635 126H361.635V186H457.635V126ZM334.802 142.584L333.302 145.584L386.968 172.416L388.468 169.416L334.802 142.584ZM333.825 173.416L413.825 319.416L466.444 290.584L386.444 144.584L333.825 173.416ZM413.924 319.595C430.071 348.593 434.635 365.017 434.635 372H494.635C494.635 348.316 482.865 320.074 466.345 290.405L413.924 319.595ZM434.635 372C434.635 398.469 426.331 412.724 413.906 421.44L448.363 470.56C480.605 447.942 494.635 412.864 494.635 372H434.635ZM431.135 416H298.635V476H431.135V416ZM328.635 446V388H268.635V446H328.635ZM298.635 418H402.135V358H298.635V418ZM428.968 401.416L430.468 398.416L376.802 371.584L375.302 374.584L428.968 401.416ZM429.84 370.396L339.84 208.896L287.429 238.104L377.429 399.604L429.84 370.396ZM339.842 208.899C327.592 186.912 324.135 173.393 324.135 166.5H264.135C264.135 188.94 273.677 213.421 287.428 238.101L339.842 208.899ZM324.135 166.5C324.135 153.32 326.874 144.571 330.541 138.628C334.084 132.886 339.751 127.7 349.376 123.607L325.894 68.3929C306.518 76.6331 290.435 89.3644 279.479 107.122C268.646 124.679 264.135 145.013 264.135 166.5H324.135Z" fill="#171717" mask="url(#path-1-outside-1_2_2)"/>
</g>
<defs>
<clipPath id="clip0_2_2">
<rect width="512" height="512" fill="white"/>
</clipPath>
</defs>
</svg>
